<?xml version="1.0" standalone="no"?>
<!DOCTYPE svg PUBLIC "-//W3C//DTD SVG 20010904//EN"
 "http://www.w3.org/TR/2001/REC-SVG-20010904/DTD/svg10.dtd">
<svg version="1.0" xmlns="http://www.w3.org/2000/svg"
 width="300.000000pt" height="300.000000pt" viewBox="0 0 300.000000 300.000000"
 preserveAspectRatio="xMidYMid meet">
<metadata>
Created by potrace 1.11, written by Peter Selinger 2001-2013
</metadata>
<g transform="translate(0.000000,300.000000) scale(0.100000,-0.100000)"
fill="#000000" stroke="none">
<path d="M1810 2038 c-36 -4 -110 -11 -165 -15 -72 -6 -111 -14 -140 -30 -22
-12 -69 -36 -105 -52 -125 -59 -180 -139 -188 -270 -4 -75 10 -161 27 -161 5
0 12 -7 15 -16 5 -13 4 -14 -7 -6 -20 17 -52 -9 -44 -36 3 -12 1 -25 -4 -28
-5 -3 -9 3 -10 13 0 16 -1 16 -9 -2 -8 -18 -9 -18 -9 -2 -1 10 -5 16 -11 12
-5 -3 -7 -12 -4 -19 3 -8 1 -17 -5 -21 -6 -3 -11 -23 -12 -43 -1 -53 -10 -73
-29 -62 -8 5 -34 10 -57 10 -34 0 -46 -5 -68 -31 -31 -38 -30 -73 3 -77 25 -4
26 -6 10 -31 -14 -23 -4 -51 18 -51 9 0 27 -9 40 -19 19 -15 21 -20 9 -25 -28
-10 -19 -105 16 -172 28 -56 35 -62 120 -107 49 -26 94 -47 100 -47 5 0 22 -8
36 -17 31 -21 109 -50 178 -67 28 -7 59 -17 70 -23 21 -12 161 -77 228 -106
21 -10 45 -17 55 -17 9 0 37 -7 62 -16 60 -21 345 -40 364 -24 10 7 16 8 21 0
13 -20 33 -9 102 58 77 74 97 101 107 150 4 17 12 34 17 37 13 9 11 49 -3 63
-9 9 -4 12 23 12 19 0 44 7 57 15 29 21 79 95 88 131 4 16 16 35 26 44 26 21
29 88 5 104 -16 9 -22 7 -35 -13 -9 -13 -18 -32 -19 -43 -3 -19 -44 -60 -52
-52 -2 2 9 29 25 61 19 40 28 74 29 108 0 44 -3 50 -22 53 -28 4 -29 26 -3 59
11 14 20 34 20 43 0 23 -26 44 -47 38 -16 -4 -18 3 -15 70 2 44 -1 79 -7 85
-6 6 -11 20 -11 32 0 22 -48 143 -66 166 -6 8 -21 34 -33 58 -26 51 -163 191
-187 191 -9 0 -32 9 -51 21 -18 12 -40 18 -48 15 -9 -3 -28 -1 -43 6 -15 6
-36 14 -47 18 -25 10 -90 20 -174 26 -36 3 -67 6 -70 7 -3 2 -35 -1 -71 -5z
m697 -1090 c-3 -8 -6 -5 -6 6 -1 11 2 17 5 13 3 -3 4 -12 1 -19z"/>
</g>
</svg>
